<svg width="24" height="24" viewBox="0 0 24 24" fill="none" xmlns="http://www.w3.org/2000/svg">
<mask id="mask0_218_1608" style="mask-type:alpha" maskUnits="userSpaceOnUse" x="0" y="0" width="24" height="24">
<rect width="24" height="24" fill="#D9D9D9"/>
</mask>
<g mask="url(#mask0_218_1608)">
<path d="M5.80775 21.1152C5.30258 21.1152 4.875 20.9403 4.525 20.5903C4.175 20.2402 4 19.8127 4 19.3075V5.923C4 5.41783 4.175 4.99025 4.525 4.64025C4.875 4.29025 5.30258 4.11525 5.80775 4.11525H7.19225V2H8.73075V4.11525H16.3077V2H17.8077V4.11525H19.1923C19.6974 4.11525 20.125 4.29025 20.475 4.64025C20.825 4.99025 21 5.41783 21 5.923V19.3075C21 19.8127 20.825 20.2402 20.475 20.5903C20.125 20.9403 19.6974 21.1152 19.1923 21.1152H5.80775ZM5.80775 19.6152H19.1923C19.2692 19.6152 19.3398 19.5832 19.4038 19.519C19.4679 19.455 19.5 19.3845 19.5 19.3075V9.923H5.5V19.3075C5.5 19.3845 5.53208 19.455 5.59625 19.519C5.66025 19.5832 5.73075 19.6152 5.80775 19.6152ZM5.5 8.423H19.5V5.923C19.5 5.846 19.4679 5.7755 19.4038 5.7115C19.3398 5.64733 19.2692 5.61525 19.1923 5.61525H5.80775C5.73075 5.61525 5.66025 5.64733 5.59625 5.7115C5.53208 5.7755 5.5 5.846 5.5 5.923V8.423ZM12.5 13.6922C12.2552 13.6922 12.0465 13.606 11.874 13.4335C11.7017 13.2612 11.6155 13.0525 11.6155 12.8075C11.6155 12.5627 11.7017 12.354 11.874 12.1815C12.0465 12.0092 12.2552 11.923 12.5 11.923C12.7448 11.923 12.9535 12.0092 13.126 12.1815C13.2983 12.354 13.3845 12.5627 13.3845 12.8075C13.3845 13.0525 13.2983 13.2612 13.126 13.4335C12.9535 13.606 12.7448 13.6922 12.5 13.6922ZM8.5 13.6922C8.25517 13.6922 8.0465 13.606 7.874 13.4335C7.70167 13.2612 7.6155 13.0525 7.6155 12.8075C7.6155 12.5627 7.70167 12.354 7.874 12.1815C8.0465 12.0092 8.25517 11.923 8.5 11.923C8.74483 11.923 8.9535 12.0092 9.126 12.1815C9.29833 12.354 9.3845 12.5627 9.3845 12.8075C9.3845 13.0525 9.29833 13.2612 9.126 13.4335C8.9535 13.606 8.74483 13.6922 8.5 13.6922ZM16.5 13.6922C16.2552 13.6922 16.0465 13.606 15.874 13.4335C15.7017 13.2612 15.6155 13.0525 15.6155 12.8075C15.6155 12.5627 15.7017 12.354 15.874 12.1815C16.0465 12.0092 16.2552 11.923 16.5 11.923C16.7448 11.923 16.9535 12.0092 17.126 12.1815C17.2983 12.354 17.3845 12.5627 17.3845 12.8075C17.3845 13.0525 17.2983 13.2612 17.126 13.4335C16.9535 13.606 16.7448 13.6922 16.5 13.6922ZM12.5 17.6152C12.2552 17.6152 12.0465 17.529 11.874 17.3565C11.7017 17.1842 11.6155 16.9756 11.6155 16.7308C11.6155 16.4858 11.7017 16.2771 11.874 16.1047C12.0465 15.9322 12.2552 15.846 12.5 15.846C12.7448 15.846 12.9535 15.9322 13.126 16.1047C13.2983 16.2771 13.3845 16.4858 13.3845 16.7308C13.3845 16.9756 13.2983 17.1842 13.126 17.3565C12.9535 17.529 12.7448 17.6152 12.5 17.6152ZM8.5 17.6152C8.25517 17.6152 8.0465 17.529 7.874 17.3565C7.70167 17.1842 7.6155 16.9756 7.6155 16.7308C7.6155 16.4858 7.70167 16.2771 7.874 16.1047C8.0465 15.9322 8.25517 15.846 8.5 15.846C8.74483 15.846 8.9535 15.9322 9.126 16.1047C9.29833 16.2771 9.3845 16.4858 9.3845 16.7308C9.3845 16.9756 9.29833 17.1842 9.126 17.3565C8.9535 17.529 8.74483 17.6152 8.5 17.6152ZM16.5 17.6152C16.2552 17.6152 16.0465 17.529 15.874 17.3565C15.7017 17.1842 15.6155 16.9756 15.6155 16.7308C15.6155 16.4858 15.7017 16.2771 15.874 16.1047C16.0465 15.9322 16.2552 15.846 16.5 15.846C16.7448 15.846 16.9535 15.9322 17.126 16.1047C17.2983 16.2771 17.3845 16.4858 17.3845 16.7308C17.3845 16.9756 17.2983 17.1842 17.126 17.3565C16.9535 17.529 16.7448 17.6152 16.5 17.6152Z" fill="#111111"/>
</g>
</svg>
