<svg width="24" height="24" viewBox="0 0 24 24" fill="none" xmlns="http://www.w3.org/2000/svg">
<mask id="mask0_132_562" style="mask-type:alpha" maskUnits="userSpaceOnUse" x="0" y="0" width="24" height="24">
<rect width="24" height="24" fill="#111"/>
</mask>
<g mask="url(#mask0_132_562)">
<path d="M17.6538 19.3075C16.7169 19.3075 15.925 18.9841 15.278 18.3372C14.6312 17.6902 14.3077 16.8983 14.3077 15.9615C14.3077 15.0245 14.6312 14.2326 15.278 13.5858C15.925 12.9388 16.7169 12.6153 17.6538 12.6153C18.5908 12.6153 19.3827 12.9388 20.0295 13.5858C20.6765 14.2326 21 15.0245 21 15.9615C21 16.8983 20.6765 17.6902 20.0295 18.3372C19.3827 18.9841 18.5908 19.3075 17.6538 19.3075ZM17.6528 17.8075C18.1624 17.8075 18.5977 17.6274 18.9587 17.2673C19.3196 16.9069 19.5 16.472 19.5 15.9625C19.5 15.4528 19.3198 15.0175 18.9595 14.6565C18.5993 14.2957 18.1644 14.1153 17.6547 14.1153C17.1451 14.1153 16.7098 14.2954 16.349 14.6558C15.9882 15.0159 15.8077 15.4508 15.8077 15.9605C15.8077 16.4702 15.9878 16.9054 16.348 17.2663C16.7083 17.6271 17.1433 17.8075 17.6528 17.8075ZM4.5 16.7115V15.2115H12.1155V16.7115H4.5ZM6.34625 10.6923C5.40925 10.6923 4.61733 10.3687 3.9705 9.72175C3.3235 9.07492 3 8.283 3 7.346C3 6.40917 3.3235 5.61725 3.9705 4.97025C4.61733 4.32342 5.40925 4 6.34625 4C7.28308 4 8.075 4.32342 8.722 4.97025C9.36883 5.61725 9.69225 6.40917 9.69225 7.346C9.69225 8.283 9.36883 9.07492 8.722 9.72175C8.075 10.3687 7.28308 10.6923 6.34625 10.6923ZM6.34525 9.19225C6.85492 9.19225 7.29017 9.01208 7.651 8.65175C8.01183 8.29158 8.19225 7.85667 8.19225 7.347C8.19225 6.83733 8.01217 6.40208 7.652 6.04125C7.29167 5.68042 6.85675 5.5 6.34725 5.5C5.83758 5.5 5.40225 5.68008 5.04125 6.04025C4.68042 6.40058 4.5 6.8355 4.5 7.345C4.5 7.85467 4.68017 8.29 5.0405 8.651C5.40067 9.01183 5.83558 9.19225 6.34525 9.19225ZM11.8845 8.096V6.596H19.5V8.096H11.8845Z" fill="#111111"/>
</g>
</svg>
