<svg width="24" height="24" viewBox="0 0 24 24" fill="none" xmlns="http://www.w3.org/2000/svg">
<mask id="mask0_121_95" style="mask-type:alpha" maskUnits="userSpaceOnUse" x="0" y="0" width="24" height="24">
<rect width="24" height="24" fill="#D9D9D9"/>
</mask>
<g mask="url(#mask0_121_95)">
<path d="M19.7616 21.8693L15.7156 17.8538C15.2027 18.0436 14.6344 18.1988 14.0106 18.3193C13.3869 18.4398 12.7167 18.5001 12.0001 18.5001C9.65007 18.5001 7.53666 17.8539 5.65982 16.5616C3.78282 15.2692 2.40907 13.5821 1.53857 11.5001C1.90774 10.6167 2.38466 9.79273 2.96932 9.02806C3.55399 8.26323 4.19757 7.60006 4.90007 7.03856L2.13082 4.23856L3.18482 3.18481L20.8153 20.8153L19.7616 21.8693ZM12.0001 15.5771C12.2091 15.5771 12.4232 15.5591 12.6423 15.5231C12.8617 15.4872 13.0566 15.4346 13.2271 15.3653L8.13482 10.2731C8.06549 10.4564 8.01291 10.6561 7.97707 10.8721C7.94107 11.0882 7.92307 11.2976 7.92307 11.5001C7.92307 12.6347 8.31891 13.5979 9.11058 14.3896C9.90224 15.1812 10.8654 15.5771 12.0001 15.5771ZM18.9538 16.0846L15.8173 12.9731C15.8955 12.7602 15.9583 12.5321 16.0058 12.2886C16.0533 12.0449 16.0771 11.7821 16.0771 11.5001C16.0771 10.3654 15.6812 9.40223 14.8896 8.61056C14.0979 7.8189 13.1347 7.42306 12.0001 7.42306C11.7181 7.42306 11.4585 7.4484 11.2213 7.49906C10.9842 7.54973 10.7559 7.62573 10.5366 7.72706L8.03482 5.23481C8.66682 4.98348 9.31233 4.79823 9.97132 4.67906C10.6303 4.55973 11.3066 4.50006 12.0001 4.50006C14.3436 4.50006 16.457 5.14623 18.3403 6.43856C20.2237 7.7309 21.5974 9.41806 22.4616 11.5001C22.0911 12.3936 21.6126 13.2276 21.0261 14.0021C20.4394 14.7764 19.7487 15.4706 18.9538 16.0846ZM14.6846 11.8501L11.6751 8.85006C12.1161 8.76673 12.5324 8.7994 12.9241 8.94806C13.3157 9.0969 13.6532 9.31806 13.9366 9.61156C14.2264 9.90523 14.4386 10.2495 14.5731 10.6443C14.7077 11.0391 14.7449 11.4411 14.6846 11.8501Z" fill="#111111"/>
</g>
</svg>
