<svg width="24" height="24" viewBox="0 0 24 24" fill="none" xmlns="http://www.w3.org/2000/svg">
<mask id="mask0_121_90" style="mask-type:alpha" maskUnits="userSpaceOnUse" x="0" y="0" width="24" height="24">
<rect width="24" height="24" fill="#D9D9D9"/>
</mask>
<g mask="url(#mask0_121_90)">
<path d="M2.61548 9.9135C2.61548 8.43917 2.92856 7.07825 3.55473 5.83075C4.18106 4.58342 5.02631 3.53025 6.09048 2.67125L7.01523 3.8385C6.12423 4.559 5.41815 5.44233 4.89698 6.4885C4.37598 7.53467 4.11548 8.67633 4.11548 9.9135H2.61548ZM19.8845 9.9135C19.8845 8.67633 19.624 7.53308 19.103 6.48375C18.5818 5.43442 17.8757 4.54942 16.9847 3.82875L17.9095 2.67125C18.9736 3.53025 19.8189 4.58342 20.4452 5.83075C21.0714 7.07825 21.3845 8.43917 21.3845 9.9135H19.8845ZM4.49998 18.8845V17.3848H6.30773V9.923C6.30773 8.57817 6.72281 7.38908 7.55298 6.35575C8.38298 5.32242 9.44865 4.6615 10.75 4.373V3.75C10.75 3.40383 10.8718 3.109 11.1155 2.8655C11.359 2.62183 11.6538 2.5 12 2.5C12.3461 2.5 12.641 2.62183 12.8845 2.8655C13.1281 3.109 13.25 3.40383 13.25 3.75V4.373C14.5513 4.6615 15.617 5.32242 16.447 6.35575C17.2771 7.38908 17.6922 8.57817 17.6922 9.923V17.3848H19.5V18.8845H4.49998ZM12 21.6923C11.5013 21.6923 11.0754 21.5157 10.7222 21.1625C10.3689 20.8093 10.1922 20.3833 10.1922 19.8845H13.8077C13.8077 20.3833 13.6311 20.8093 13.2777 21.1625C12.9246 21.5157 12.4986 21.6923 12 21.6923ZM7.80773 17.3848H16.1922V9.923C16.1922 8.76533 15.783 7.77725 14.9645 6.95875C14.1458 6.14008 13.1576 5.73075 12 5.73075C10.8423 5.73075 9.85415 6.14008 9.03548 6.95875C8.21698 7.77725 7.80773 8.76533 7.80773 9.923V17.3848Z" fill="#111111"/>
</g>
</svg>
