<svg width="24" height="24" viewBox="0 0 24 24" fill="none" xmlns="http://www.w3.org/2000/svg">
<mask id="mask0_121_126" style="mask-type:alpha" maskUnits="userSpaceOnUse" x="0" y="0" width="24" height="24">
<rect width="24" height="24" fill="#D9D9D9"/>
</mask>
<g mask="url(#mask0_121_126)">
<path d="M6.5 19.5C5.118 19.5 3.93917 19.0206 2.9635 18.0617C1.98783 17.1029 1.5 15.9311 1.5 14.5463C1.5 13.3263 1.89167 12.2392 2.675 11.285C3.45833 10.3308 4.45767 9.76658 5.673 9.59225C5.9935 8.09742 6.74517 6.875 7.928 5.925C9.11067 4.975 10.468 4.5 12 4.5C13.8107 4.5 15.3467 5.13067 16.608 6.392C17.8693 7.65333 18.5 9.18933 18.5 11V11.5H18.8078C19.8616 11.582 20.7404 12.0058 21.4443 12.7713C22.1481 13.5366 22.5 14.4462 22.5 15.5C22.5 16.6153 22.1122 17.5608 21.3365 18.3365C20.5608 19.1122 19.6153 19.5 18.5 19.5H6.5ZM12.0003 15.4902C12.2129 15.4902 12.391 15.4184 12.5345 15.2747C12.6782 15.1309 12.75 14.9527 12.75 14.74C12.75 14.5275 12.6781 14.3494 12.5343 14.2058C12.3904 14.0623 12.2122 13.9905 11.9998 13.9905C11.7871 13.9905 11.609 14.0623 11.4655 14.206C11.3218 14.3498 11.25 14.5281 11.25 14.7408C11.25 14.9532 11.3219 15.1313 11.4658 15.275C11.6096 15.4185 11.7878 15.4902 12.0003 15.4902ZM11.25 12.4905H12.75V8.25H11.25V12.4905Z" fill="#111111"/>
</g>
</svg>
