<svg width="24" height="24" viewBox="0 0 24 24" fill="none" xmlns="http://www.w3.org/2000/svg">
<mask id="mask0_162_832" style="mask-type:alpha" maskUnits="userSpaceOnUse" x="0" y="0" width="24" height="24">
<rect width="24" height="24" fill="#D9D9D9"/>
</mask>
<g mask="url(#mask0_162_832)">
<path d="M9.9 16.5382L12.5 13.9383L15.1 16.5382L16.1538 15.4845L13.5538 12.8845L16.1538 10.2845L15.1 9.23075L12.5 11.8308L9.9 9.23075L8.84625 10.2845L11.4463 12.8845L8.84625 15.4845L9.9 16.5382ZM7.80775 20.8845C7.30258 20.8845 6.875 20.7095 6.525 20.3595C6.175 20.0095 6 19.5819 6 19.0768V6.3845H5V4.8845H9.5V4H15.5V4.8845H20V6.3845H19V19.0768C19 19.5819 18.825 20.0095 18.475 20.3595C18.125 20.7095 17.6974 20.8845 17.1923 20.8845H7.80775ZM17.5 6.3845H7.5V19.0768C7.5 19.1538 7.53208 19.2243 7.59625 19.2883C7.66025 19.3524 7.73075 19.3845 7.80775 19.3845H17.1923C17.2692 19.3845 17.3398 19.3524 17.4038 19.2883C17.4679 19.2243 17.5 19.1538 17.5 19.0768V6.3845Z" fill="#111111"/>
</g>
</svg>
