<svg width="24" height="24" viewBox="0 0 24 24" fill="none" xmlns="http://www.w3.org/2000/svg">
<mask id="mask0_154_555" style="mask-type:alpha" maskUnits="userSpaceOnUse" x="0" y="0" width="24" height="24">
<rect width="24" height="24" fill="#D9D9D9"/>
</mask>
<g mask="url(#mask0_154_555)">
<path d="M12.5 22C11.1872 22 9.95267 21.7507 8.7965 21.252C7.64033 20.7533 6.63467 20.0766 5.7795 19.2218C4.92433 18.3669 4.24725 17.3617 3.74825 16.206C3.24942 15.0503 3 13.8156 3 12.5017C3 11.1877 3.24933 9.95267 3.748 8.7965C4.24667 7.64033 4.92342 6.63467 5.77825 5.7795C6.63308 4.92433 7.63833 4.24725 8.794 3.74825C9.94967 3.24942 11.1844 3 12.4983 3C13.8123 3 15.0473 3.24942 16.2035 3.74825C17.3597 4.24692 18.3653 4.92375 19.2205 5.77875C20.0757 6.63375 20.7528 7.63917 21.2518 8.795C21.7506 9.95083 22 11.1858 22 12.5V13.7192C22 14.6321 21.6866 15.4071 21.0598 16.0443C20.4329 16.6814 19.663 17 18.75 17C18.1602 17 17.6133 16.8558 17.1095 16.5673C16.6057 16.2788 16.2076 15.8819 15.9152 15.3767C15.4832 15.8923 14.9727 16.2917 14.3837 16.575C13.7946 16.8583 13.1667 17 12.5 17C11.2513 17 10.1892 16.5622 9.3135 15.6865C8.43783 14.8108 8 13.7487 8 12.5C8 11.2513 8.43783 10.1892 9.3135 9.3135C10.1892 8.43783 11.2513 8 12.5 8C13.7487 8 14.8108 8.43783 15.6865 9.3135C16.5622 10.1892 17 11.2513 17 12.5V13.7192C17 14.2102 17.1689 14.6298 17.5068 14.978C17.8446 15.326 18.259 15.5 18.75 15.5C19.241 15.5 19.6554 15.326 19.9932 14.978C20.3311 14.6298 20.5 14.2102 20.5 13.7192V12.5C20.5 10.2667 19.725 8.375 18.175 6.825C16.625 5.275 14.7333 4.5 12.5 4.5C10.2667 4.5 8.375 5.275 6.825 6.825C5.275 8.375 4.5 10.2667 4.5 12.5C4.5 14.7333 5.275 16.625 6.825 18.175C8.375 19.725 10.2667 20.5 12.5 20.5H17.5V22H12.5ZM12.5 15.5C13.3333 15.5 14.0417 15.2083 14.625 14.625C15.2083 14.0417 15.5 13.3333 15.5 12.5C15.5 11.6667 15.2083 10.9583 14.625 10.375C14.0417 9.79167 13.3333 9.5 12.5 9.5C11.6667 9.5 10.9583 9.79167 10.375 10.375C9.79167 10.9583 9.5 11.6667 9.5 12.5C9.5 13.3333 9.79167 14.0417 10.375 14.625C10.9583 15.2083 11.6667 15.5 12.5 15.5Z" fill="#111111"/>
</g>
</svg>
