<svg width="24" height="24" viewBox="0 0 24 24" fill="none" xmlns="http://www.w3.org/2000/svg">
<mask id="mask0_121_100" style="mask-type:alpha" maskUnits="userSpaceOnUse" x="0" y="0" width="24" height="24">
<rect width="24" height="24" fill="#D9D9D9"/>
</mask>
<g mask="url(#mask0_121_100)">
<path d="M7.00002 14.423C7.67302 14.423 8.2451 14.1874 8.71627 13.7163C9.18743 13.2451 9.42302 12.673 9.42302 12C9.42302 11.327 9.18743 10.7549 8.71627 10.2838C8.2451 9.8126 7.67302 9.57702 7.00002 9.57702C6.32702 9.57702 5.75493 9.8126 5.28377 10.2838C4.8126 10.7549 4.57702 11.327 4.57702 12C4.57702 12.673 4.8126 13.2451 5.28377 13.7163C5.75493 14.1874 6.32702 14.423 7.00002 14.423ZM7.00002 17.3653C5.50002 17.3653 4.23077 16.8461 3.19227 15.8078C2.15393 14.7693 1.63477 13.5 1.63477 12C1.63477 10.5 2.15393 9.23077 3.19227 8.19227C4.23077 7.15393 5.50002 6.63477 7.00002 6.63477C8.24102 6.63477 9.32085 6.98601 10.2395 7.68851C11.158 8.39101 11.7756 9.24485 12.0923 10.25H20.8038L22.5385 11.9845L19.548 15.3018L17.3848 13.625L15.4713 15.346L13.6923 13.75H12.0923C11.7654 14.7962 11.135 15.6603 10.201 16.3423C9.26702 17.0243 8.20002 17.3653 7.00002 17.3653Z" fill="#111111"/>
</g>
</svg>
