<svg width="24" height="24" viewBox="0 0 24 24" fill="none" xmlns="http://www.w3.org/2000/svg">
<mask id="mask0_121_86" style="mask-type:alpha" maskUnits="userSpaceOnUse" x="0" y="0" width="24" height="24">
<rect width="24" height="24" fill="#D9D9D9"/>
</mask>
<g mask="url(#mask0_121_86)">
<path d="M12 16.5C10.7513 16.5 9.68917 16.0622 8.8135 15.1865C7.93783 14.3108 7.5 13.2487 7.5 12C7.5 10.7513 7.93783 9.68917 8.8135 8.8135C9.68917 7.93783 10.7513 7.5 12 7.5C13.2487 7.5 14.3108 7.93783 15.1865 8.8135C16.0622 9.68917 16.5 10.7513 16.5 12C16.5 13.2487 16.0622 14.3108 15.1865 15.1865C14.3108 16.0622 13.2487 16.5 12 16.5ZM5 12.75H1.25V11.25H5V12.75ZM22.75 12.75H19V11.25H22.75V12.75ZM11.25 5V1.25H12.75V5H11.25ZM11.25 22.75V19H12.75V22.75H11.25ZM6.573 7.577L4.23075 5.3155L5.2905 4.20575L7.54625 6.523L6.573 7.577ZM18.7095 19.7943L16.4385 17.4615L17.427 16.423L19.7693 18.6845L18.7095 19.7943ZM16.423 6.573L18.6845 4.23075L19.7943 5.2905L17.477 7.54625L16.423 6.573ZM4.20575 18.7095L6.5385 16.4385L7.55775 17.427L5.30575 19.7788L4.20575 18.7095Z" fill="#111111"/>
</g>
</svg>
