<svg width="24" height="24" viewBox="0 0 24 24" fill="none" xmlns="http://www.w3.org/2000/svg">
<mask id="mask0_154_795" style="mask-type:alpha" maskUnits="userSpaceOnUse" x="0" y="0" width="24" height="24">
<rect width="24" height="24" fill="#D9D9D9"/>
</mask>
<g mask="url(#mask0_154_795)">
<path d="M6.80775 21.5C6.30908 21.5 5.88308 21.3234 5.52975 20.9703C5.17658 20.6169 5 20.1909 5 19.6923V10.3077C5 9.80908 5.17658 9.38308 5.52975 9.02975C5.88308 8.67658 6.30908 8.5 6.80775 8.5H8V6.5C8 5.25133 8.43783 4.18917 9.3135 3.3135C10.1892 2.43783 11.2513 2 12.5 2C13.7487 2 14.8108 2.43783 15.6865 3.3135C16.5622 4.18917 17 5.25133 17 6.5V8.5H18.1923C18.6909 8.5 19.1169 8.67658 19.4703 9.02975C19.8234 9.38308 20 9.80908 20 10.3077V19.6923C20 20.1909 19.8234 20.6169 19.4703 20.9703C19.1169 21.3234 18.6909 21.5 18.1923 21.5H6.80775ZM6.80775 20H18.1923C18.2821 20 18.3558 19.9712 18.4135 19.9135C18.4712 19.8558 18.5 19.7821 18.5 19.6923V10.3077C18.5 10.2179 18.4712 10.1442 18.4135 10.0865C18.3558 10.0288 18.2821 10 18.1923 10H6.80775C6.71792 10 6.64417 10.0288 6.5865 10.0865C6.52883 10.1442 6.5 10.2179 6.5 10.3077V19.6923C6.5 19.7821 6.52883 19.8558 6.5865 19.9135C6.64417 19.9712 6.71792 20 6.80775 20ZM12.5 16.75C12.9858 16.75 13.399 16.5798 13.7395 16.2395C14.0798 15.899 14.25 15.4858 14.25 15C14.25 14.5142 14.0798 14.101 13.7395 13.7605C13.399 13.4202 12.9858 13.25 12.5 13.25C12.0142 13.25 11.601 13.4202 11.2605 13.7605C10.9202 14.101 10.75 14.5142 10.75 15C10.75 15.4858 10.9202 15.899 11.2605 16.2395C11.601 16.5798 12.0142 16.75 12.5 16.75ZM9.5 8.5H15.5V6.5C15.5 5.66667 15.2083 4.95833 14.625 4.375C14.0417 3.79167 13.3333 3.5 12.5 3.5C11.6667 3.5 10.9583 3.79167 10.375 4.375C9.79167 4.95833 9.5 5.66667 9.5 6.5V8.5Z" fill="#111111"/>
</g>
</svg>
