<svg width="24" height="24" viewBox="0 0 24 24" fill="none" xmlns="http://www.w3.org/2000/svg">
<mask id="mask0_122_107" style="mask-type:alpha" maskUnits="userSpaceOnUse" x="0" y="0" width="24" height="24">
<rect width="24" height="24" fill="#D9D9D9"/>
</mask>
<g mask="url(#mask0_122_107)">
<path fill-rule="evenodd" clip-rule="evenodd" d="M2 -1H22C23.6568 -1 25 0.34314 25 2V22C25 23.6568 23.6568 25 22 25H2C0.34314 25 -1 23.6568 -1 22V2C-1 0.34314 0.34314 -1 2 -1ZM2 1C1.44772 1 1 1.44772 1 2V13.7272L4.3636 10.3636C4.53618 10.191 4.77144 10.0959 5.01548 10.1001C5.2595 10.1043 5.49136 10.2074 5.6579 10.3859L12.7471 17.9802L18.3636 12.3636C18.715 12.0121 19.285 12.0121 19.6364 12.3636L23 15.7272V2C23 1.44772 22.5522 1 22 1H2ZM1 22V16.2728L4.97774 12.2951L12.0622 19.8842L14.8823 23H2C1.44772 23 1 22.5522 1 22ZM22 23H17.31L13.9667 19.306L19 14.2728L23 18.2728V22C23 22.5522 22.5522 23 22 23ZM10.2984 8C10.2984 7.06026 11.0603 6.29844 12 6.29844C12.9397 6.29844 13.7016 7.06026 13.7016 8C13.7016 8.93974 12.9397 9.70156 12 9.70156C11.0603 9.70156 10.2984 8.93974 10.2984 8ZM12 4.49844C10.0661 4.49844 8.49844 6.06614 8.49844 8C8.49844 9.93386 10.0661 11.5016 12 11.5016C13.9339 11.5016 15.5016 9.93386 15.5016 8C15.5016 6.06614 13.9339 4.49844 12 4.49844Z" fill="#111111"/>
</g>
</svg>
